<svg xmlns="http://www.w3.org/2000/svg" viewBox="0 0 120 120">
<!-- SVG created with Arrow, by QuiverAI (https://quiver.ai) -->
  <style type="text/css">.cls-0 {fill:#DD6055;stroke:#D94032;stroke-width:0.2;stroke-miterlimit:10;}
.cls-1 {fill:#EE8F7C;stroke:#D94032;stroke-width:0.2;stroke-miterlimit:10;}</style>
  <path class="cls-0" d="m81.1 54.5c6.1-2.6 26.4-12.7 25.7-28.3-0.2-2.9-1.8-6-5.5-6.8-3.8-0.8-7.3 0.5-10.9 2.7-5.3 3.4-11.3 9.4-16.9 16.2 2.7-8.4 5.4-17.7 4.4-25.6-0.6-5.5-4.3-10.7-8.3-10.3-3.8 0-6.8 4.1-8.8 8.1-3.9 8-4.6 17.6-4.1 27.6-2-6.7-9.5-29-18.2-30.1-4.4-0.4-8.5 1.8-9.1 7.4-0.9 6.1 3 16.4 12.5 28.2-9.3-6.4-20.2-12.6-28.4-11.8-3.4 0.4-6.8 1.5-7 6.1 0 3.5 2.2 11.7 16.7 16.8 3.7 1.3 8.1 2.6 13.1 3.5-5.6-0.4-11.2-0.4-16.8 0.9-8.3 1.5-16.7 5.2-17.6 10.3-1.1 5 3.9 10 12.5 10.2 7.5 0 15-2.4 25.2-6.9-6.8 5-18.6 15.2-19 25.4 0 3.5 2.2 7.2 6.1 8.5 5.4 1.7 10.5-1.7 14.6-5.8 4.3-4.4 8.6-12.1 12.3-21.6-1.3 9.8-3.2 27 5.7 36.1 4.6 4.3 11.1 3 14-3.3 3.6-7.5 1.7-21.1-4-34.5 5.9 8.2 19 21.5 29.2 21 3.9-0.4 9-1.2 9-6.3-0.7-9.1-9.8-16.9-26.4-23.9 10.2 1.8 23.3 3.5 32-1.3 7-3.7 6.5-9.3 3.5-12.5-3.3-3.5-10-4.4-16.8-4.2-5.2 0-10.2 1.3-18.7 4.2z"/>
  <path class="cls-1" d="m55.4 53.3c-3.5 2.5-4.6 5.8-3.1 9.3 3.1 5.3 9 6.2 12.9 3.2 1.5-1.1 2.4-2.7 2.9-3.9 1-3.3-0.9-8.8-6.4-10.3-2.1-0.4-4.5 0-6.3 1.7z"/>
</svg>